<svg width="213" height="56" viewBox="0 0 213 56" fill="none" xmlns="http://www.w3.org/2000/svg">
<path d="M10.4272 40.0849V17.7491H14.8615V40.0849H10.4272ZM18.8031 32.4645H13.6461V28.9499H18.5731C19.9965 28.9499 21.0695 28.5995 21.7921 27.8988C22.5148 27.198 22.8761 26.2674 22.8761 25.1068C22.8761 23.9243 22.5038 22.9937 21.7593 22.3148C21.0367 21.6141 20.0075 21.2637 18.6717 21.2637H13.6461V17.7491H18.7374C20.533 17.7491 22.0768 18.0447 23.3688 18.636C24.6607 19.2272 25.6571 20.0703 26.3578 21.1652C27.0586 22.2382 27.4089 23.5411 27.4089 25.0739C27.4089 27.417 26.6315 29.2345 25.0768 30.5265C23.5221 31.8185 21.4308 32.4645 18.8031 32.4645ZM34.4435 40.0849L28.1041 22.4791H32.6369L36.7099 34.8951L37.4654 38.0812H36.8742L37.5968 34.8951L41.6698 22.4791H45.9727L39.6333 40.0849H34.4435ZM51.3578 28.2601H47.1205C47.3176 26.9462 47.7446 25.8294 48.4016 24.9097C49.0804 23.9681 49.9673 23.2455 51.0622 22.7418C52.1789 22.2382 53.4819 21.9864 54.9709 21.9864C56.5914 21.9864 57.949 22.282 59.0439 22.8732C60.1607 23.4645 60.9928 24.2856 61.5403 25.3367C62.0877 26.3878 62.3614 27.5922 62.3614 28.9499V35.782C62.3614 36.855 62.4052 37.7309 62.4928 38.4097C62.6023 39.0667 62.7337 39.625 62.887 40.0849H58.5184C58.3432 39.6469 58.2337 39.0995 58.1899 38.4426C58.1461 37.7637 58.1242 37.0849 58.1242 36.4061V28.9499C58.1242 27.8112 57.8395 26.9462 57.2702 26.355C56.7227 25.7637 55.8687 25.4681 54.7081 25.4681C53.7008 25.4681 52.9235 25.7309 52.376 26.2564C51.8286 26.7601 51.4892 27.428 51.3578 28.2601ZM58.6826 29.3769V31.9718C57.0622 31.9718 55.7373 32.0593 54.7081 32.2345C53.6789 32.3878 52.8797 32.6177 52.3103 32.9243C51.741 33.2309 51.3359 33.5812 51.095 33.9754C50.876 34.3696 50.7665 34.7966 50.7665 35.2564C50.7665 35.9353 51.0184 36.4718 51.522 36.8659C52.0257 37.2601 52.6935 37.4572 53.5257 37.4572C54.3797 37.4572 55.157 37.2491 55.8578 36.8331C56.5585 36.417 57.106 35.8477 57.5001 35.125C57.9162 34.4024 58.1242 33.6031 58.1242 32.7272H59.7337C59.6461 34.1287 59.3724 35.3331 58.9125 36.3404C58.4746 37.3258 57.9052 38.136 57.2045 38.771C56.5257 39.3842 55.7702 39.8331 54.9381 40.1177C54.106 40.4243 53.2738 40.5776 52.4417 40.5776C51.2811 40.5776 50.2519 40.3915 49.3541 40.0192C48.4782 39.625 47.7884 39.0557 47.2848 38.3112C46.7811 37.5448 46.5293 36.6031 46.5293 35.4864C46.5293 34.282 46.8578 33.2528 47.5147 32.3988C48.1935 31.5229 49.2118 30.855 50.5695 30.3951C51.7957 29.9572 53.0439 29.6834 54.314 29.5739C55.606 29.4426 57.0622 29.3769 58.6826 29.3769ZM65.845 40.0849V22.4791H70.0494V40.0849H65.845ZM70.0494 29.8696H68.7026C68.8121 28.0958 69.1515 26.6287 69.7209 25.4681C70.2902 24.3075 71.0457 23.4426 71.9873 22.8732C72.9508 22.282 74.0457 21.9864 75.272 21.9864C76.4545 21.9864 77.4837 22.2272 78.3596 22.709C79.2574 23.1688 79.9472 23.8696 80.4289 24.8112C80.9326 25.7528 81.1844 26.9353 81.1844 28.3586V40.0849H76.98V29.2126C76.98 28.4024 76.8596 27.7236 76.6187 27.1761C76.3997 26.6068 76.0603 26.1798 75.6005 25.8951C75.1406 25.6104 74.5494 25.4681 73.8267 25.4681C73.2574 25.4681 72.7318 25.5885 72.2501 25.8294C71.7902 26.0484 71.3961 26.3659 71.0676 26.782C70.7391 27.1761 70.4873 27.6469 70.3121 28.1944C70.137 28.7199 70.0494 29.2783 70.0494 29.8696ZM109.969 24.6469H105.338C104.988 23.4426 104.364 22.5228 103.466 21.8878C102.59 21.2528 101.528 20.9353 100.28 20.9353C99.0534 20.9353 97.9913 21.2637 97.0935 21.9207C96.2176 22.5557 95.5388 23.4754 95.057 24.6798C94.5972 25.8623 94.3672 27.2856 94.3672 28.9499C94.3672 30.6141 94.5972 32.0375 95.057 33.2199C95.5169 34.4024 96.1848 35.3112 97.0607 35.9462C97.9585 36.5812 99.0315 36.8988 100.28 36.8988C101.462 36.8988 102.491 36.6031 103.367 36.0119C104.265 35.3988 104.9 34.5119 105.272 33.3513H109.937C109.542 34.9061 108.875 36.2199 107.933 37.2929C107.013 38.3659 105.896 39.1871 104.583 39.7564C103.291 40.3039 101.878 40.5776 100.345 40.5776C98.1775 40.5776 96.3052 40.1068 94.7285 39.1652C93.1519 38.2236 91.9366 36.8878 91.0826 35.1579C90.2504 33.428 89.8344 31.3586 89.8344 28.9499C89.8344 26.5411 90.2614 24.4718 91.1154 22.7418C91.9694 20.99 93.1848 19.6433 94.7614 18.7017C96.338 17.7382 98.2213 17.2564 100.411 17.2564C101.966 17.2564 103.4 17.5411 104.714 18.1104C106.028 18.6579 107.145 19.4791 108.064 20.5739C109.006 21.6688 109.641 23.0265 109.969 24.6469ZM116.585 28.2601H112.348C112.545 26.9462 112.972 25.8294 113.629 24.9097C114.308 23.9681 115.194 23.2455 116.289 22.7418C117.406 22.2382 118.709 21.9864 120.198 21.9864C121.819 21.9864 123.176 22.282 124.271 22.8732C125.388 23.4645 126.22 24.2856 126.767 25.3367C127.315 26.3878 127.589 27.5922 127.589 28.9499V35.782C127.589 36.855 127.632 37.7309 127.72 38.4097C127.829 39.0667 127.961 39.625 128.114 40.0849H123.746C123.57 39.6469 123.461 39.0995 123.417 38.4426C123.373 37.7637 123.351 37.0849 123.351 36.4061V28.9499C123.351 27.8112 123.067 26.9462 122.497 26.355C121.95 25.7637 121.096 25.4681 119.935 25.4681C118.928 25.4681 118.151 25.7309 117.603 26.2564C117.056 26.7601 116.716 27.428 116.585 28.2601ZM123.91 29.3769V31.9718C122.289 31.9718 120.965 32.0593 119.935 32.2345C118.906 32.3878 118.107 32.6177 117.538 32.9243C116.968 33.2309 116.563 33.5812 116.322 33.9754C116.103 34.3696 115.994 34.7966 115.994 35.2564C115.994 35.9353 116.246 36.4718 116.749 36.8659C117.253 37.2601 117.921 37.4572 118.753 37.4572C119.607 37.4572 120.384 37.2491 121.085 36.8331C121.786 36.417 122.333 35.8477 122.727 35.125C123.143 34.4024 123.351 33.6031 123.351 32.7272H124.961C124.873 34.1287 124.6 35.3331 124.14 36.3404C123.702 37.3258 123.132 38.136 122.432 38.771C121.753 39.3842 120.997 39.8331 120.165 40.1177C119.333 40.4243 118.501 40.5776 117.669 40.5776C116.508 40.5776 115.479 40.3915 114.581 40.0192C113.705 39.625 113.016 39.0557 112.512 38.3112C112.008 37.5448 111.756 36.6031 111.756 35.4864C111.756 34.282 112.085 33.2528 112.742 32.3988C113.421 31.5229 114.439 30.855 115.797 30.3951C117.023 29.9572 118.271 29.6834 119.541 29.5739C120.833 29.4426 122.289 29.3769 123.91 29.3769ZM131.072 40.0849V22.4791H135.277V40.0849H131.072ZM135.277 29.8696H133.93C134.039 28.0958 134.379 26.6287 134.948 25.4681C135.517 24.3075 136.273 23.4426 137.215 22.8732C138.178 22.282 139.273 21.9864 140.499 21.9864C141.682 21.9864 142.711 22.2272 143.587 22.709C144.485 23.1688 145.174 23.8696 145.656 24.8112C146.16 25.7528 146.412 26.9353 146.412 28.3586V40.0849H142.207V29.2126C142.207 28.4024 142.087 27.7236 141.846 27.1761C141.627 26.6068 141.288 26.1798 140.828 25.8951C140.368 25.6104 139.777 25.4681 139.054 25.4681C138.485 25.4681 137.959 25.5885 137.477 25.8294C137.017 26.0484 136.623 26.3659 136.295 26.782C135.966 27.1761 135.715 27.6469 135.539 28.1944C135.364 28.7199 135.277 29.2783 135.277 29.8696ZM153.834 28.2601H149.596C149.794 26.9462 150.221 25.8294 150.877 24.9097C151.556 23.9681 152.443 23.2455 153.538 22.7418C154.655 22.2382 155.958 21.9864 157.447 21.9864C159.067 21.9864 160.425 22.282 161.52 22.8732C162.637 23.4645 163.469 24.2856 164.016 25.3367C164.564 26.3878 164.837 27.5922 164.837 28.9499V35.782C164.837 36.855 164.881 37.7309 164.969 38.4097C165.078 39.0667 165.21 39.625 165.363 40.0849H160.994C160.819 39.6469 160.71 39.0995 160.666 38.4426C160.622 37.7637 160.6 37.0849 160.6 36.4061V28.9499C160.6 27.8112 160.315 26.9462 159.746 26.355C159.199 25.7637 158.345 25.4681 157.184 25.4681C156.177 25.4681 155.399 25.7309 154.852 26.2564C154.304 26.7601 153.965 27.428 153.834 28.2601ZM161.158 29.3769V31.9718C159.538 31.9718 158.213 32.0593 157.184 32.2345C156.155 32.3878 155.356 32.6177 154.786 32.9243C154.217 33.2309 153.812 33.5812 153.571 33.9754C153.352 34.3696 153.242 34.7966 153.242 35.2564C153.242 35.9353 153.494 36.4718 153.998 36.8659C154.502 37.2601 155.169 37.4572 156.002 37.4572C156.856 37.4572 157.633 37.2491 158.334 36.8331C159.034 36.417 159.582 35.8477 159.976 35.125C160.392 34.4024 160.6 33.6031 160.6 32.7272H162.21C162.122 34.1287 161.848 35.3331 161.388 36.3404C160.95 37.3258 160.381 38.136 159.68 38.771C159.002 39.3842 158.246 39.8331 157.414 40.1177C156.582 40.4243 155.75 40.5776 154.918 40.5776C153.757 40.5776 152.728 40.3915 151.83 40.0192C150.954 39.625 150.264 39.0557 149.761 38.3112C149.257 37.5448 149.005 36.6031 149.005 35.4864C149.005 34.282 149.334 33.2528 149.991 32.3988C150.669 31.5229 151.688 30.855 153.045 30.3951C154.272 29.9572 155.52 29.6834 156.79 29.5739C158.082 29.4426 159.538 29.3769 161.158 29.3769ZM174.923 40.5776C173.412 40.5776 172.098 40.2053 170.981 39.4608C169.865 38.7163 169 37.6542 168.387 36.2747C167.795 34.8732 167.5 33.2199 167.5 31.3148C167.5 28.3148 168.168 26.0156 169.503 24.417C170.861 22.7966 172.668 21.9864 174.923 21.9864C176.872 21.9864 178.416 22.7856 179.554 24.3842C180.693 25.9827 181.262 28.2929 181.262 31.3148C181.262 33.2199 181 34.8732 180.474 36.2747C179.971 37.6542 179.237 38.7163 178.273 39.4608C177.332 40.2053 176.215 40.5776 174.923 40.5776ZM175.679 37.0958C176.927 37.0958 177.879 36.6031 178.536 35.6177C179.215 34.6323 179.554 33.198 179.554 31.3148C179.554 29.4316 179.215 27.9864 178.536 26.9791C177.857 25.9718 176.905 25.4681 175.679 25.4681C174.43 25.4681 173.478 25.9718 172.821 26.9791C172.164 27.9645 171.835 29.4097 171.835 31.3148C171.835 33.1542 172.164 34.5776 172.821 35.5849C173.5 36.5922 174.452 37.0958 175.679 37.0958ZM179.554 40.0849V16.4353H183.759V40.0849H179.554ZM191.147 28.2601H186.909C187.106 26.9462 187.533 25.8294 188.19 24.9097C188.869 23.9681 189.756 23.2455 190.851 22.7418C191.968 22.2382 193.271 21.9864 194.76 21.9864C196.38 21.9864 197.738 22.282 198.833 22.8732C199.949 23.4645 200.782 24.2856 201.329 25.3367C201.876 26.3878 202.15 27.5922 202.15 28.9499V35.782C202.15 36.855 202.194 37.7309 202.282 38.4097C202.391 39.0667 202.522 39.625 202.676 40.0849H198.307C198.132 39.6469 198.022 39.0995 197.979 38.4426C197.935 37.7637 197.913 37.0849 197.913 36.4061V28.9499C197.913 27.8112 197.628 26.9462 197.059 26.355C196.511 25.7637 195.657 25.4681 194.497 25.4681C193.49 25.4681 192.712 25.7309 192.165 26.2564C191.617 26.7601 191.278 27.428 191.147 28.2601ZM198.471 29.3769V31.9718C196.851 31.9718 195.526 32.0593 194.497 32.2345C193.468 32.3878 192.668 32.6177 192.099 32.9243C191.53 33.2309 191.125 33.5812 190.884 33.9754C190.665 34.3696 190.555 34.7966 190.555 35.2564C190.555 35.9353 190.807 36.4718 191.311 36.8659C191.814 37.2601 192.482 37.4572 193.314 37.4572C194.168 37.4572 194.946 37.2491 195.647 36.8331C196.347 36.417 196.895 35.8477 197.289 35.125C197.705 34.4024 197.913 33.6031 197.913 32.7272H199.522C199.435 34.1287 199.161 35.3331 198.701 36.3404C198.263 37.3258 197.694 38.136 196.993 38.771C196.314 39.3842 195.559 39.8331 194.727 40.1177C193.895 40.4243 193.063 40.5776 192.23 40.5776C191.07 40.5776 190.041 40.3915 189.143 40.0192C188.267 39.625 187.577 39.0557 187.074 38.3112C186.57 37.5448 186.318 36.6031 186.318 35.4864C186.318 34.282 186.647 33.2528 187.303 32.3988C187.982 31.5229 189.001 30.855 190.358 30.3951C191.584 29.9572 192.833 29.6834 194.103 29.5739C195.395 29.4426 196.851 29.3769 198.471 29.3769Z" fill="#0D382F"/>
</svg>
